<svg xmlns="http://www.w3.org/2000/svg" xmlns:xlink="http://www.w3.org/1999/xlink" version="1.1" x="0px" y="0px" viewBox="0 0 512 640" enable-background="new 0 0 512 512" xml:space="preserve"><g>
<path d="M374.7,336.8c44.2-36,69.6-89.2,69.6-146.2c0-107.3-95.2-197.5-200.4-188c-99.7,9-173.4,86-176.2,182.3   c-1.7,59.2,23.6,114.5,69.5,151.8c16,13,26,31,28.2,50.3c-17.8,0.3-32.3,14.9-32.3,32.8c0,18.1,14.7,32.8,32.8,32.8h32.7   c0,31.6,25.7,57.3,57.3,57.3s57.3-25.7,57.3-57.3H346c18.1,0,32.8-14.7,32.8-32.8c0-17.9-14.4-32.5-32.3-32.8   C348.8,367.8,358.7,349.8,374.7,336.8z M256,493.6c-22.6,0-40.9-18.3-40.9-40.9h81.9C296.9,475.3,278.6,493.6,256,493.6z    M362.4,419.9c0,9.1-7.4,16.4-16.4,16.4H166c-9.1,0-16.4-7.4-16.4-16.4c0-9.1,7.4-16.4,16.4-16.4h180   C355.1,403.4,362.4,410.8,362.4,419.9z M330.1,387.1l-65.9,0V263.9c36.8-4.1,65.5-35.3,65.5-73.2c0-40.6-33.1-73.7-73.7-73.7   s-73.7,33.1-73.7,73.7c0,37.9,28.7,69.1,65.5,73.2v123.2l-65.9,0c-2.3-24.2-14.5-46.8-34.3-62.9c-42-34.1-65.1-84.6-63.5-138.7   C86.7,97.6,157.5,25.7,245,19c104.8-7.9,183,82.5,183,171.6c0,52-23.2,100.6-63.6,133.4C344.6,340.2,332.3,362.8,330.1,387.1z    M256,248c-31.6,0-57.3-25.7-57.3-57.3s25.7-57.3,57.3-57.3s57.3,25.7,57.3,57.3S287.6,248,256,248z"/>
<polygon points="241.4,194.9 230.1,177.9 216.4,187 237.9,219.2 294,172.4 283.5,159.8  "/></g>
<text x="0" y="527" fill="#000000" font-size="5px" font-weight="bold" font-family="'Helvetica Neue', Helvetica, Arial-Unicode, Arial, Sans-serif">Created by Icon Fair</text>
<text x="0" y="532" fill="#000000" font-size="5px" font-weight="bold" font-family="'Helvetica Neue', Helvetica, Arial-Unicode, Arial, Sans-serif">from the Noun Project</text>
</svg>