<svg xmlns="http://www.w3.org/2000/svg" xmlns:xlink="http://www.w3.org/1999/xlink" version="1.1" x="0px" y="0px" viewBox="0 0 100 125" enable-background="new 0 0 100 100" xml:space="preserve"><g><g><path fill="#000000" d="M49.999,59.536c-5.315,0-9.638-4.324-9.638-9.644v-32.77c0-5.317,4.323-9.643,9.638-9.643    c5.316,0,9.638,4.325,9.638,9.643v32.772C59.637,55.212,55.315,59.536,49.999,59.536z M49.999,10.372    c-3.721,0-6.748,3.028-6.748,6.752v32.772c0,3.721,3.027,6.75,6.748,6.75c3.721,0,6.749-3.029,6.749-6.75V17.123    C56.748,13.4,53.72,10.372,49.999,10.372z"/></g><g><g><path fill="#000000" d="M49.999,92.52c-22.055,0-40-17.946-40-40.004c0-9.706,3.549-19.082,9.999-26.403     c2.531-2.877,7.311-3.185,10.198-0.649c2.989,2.632,3.28,7.212,0.649,10.201c-4.121,4.678-6.391,10.663-6.391,16.847     c0,14.091,11.462,25.55,25.548,25.55c14.087,0,25.548-11.461,25.548-25.55c0-6.186-2.27-12.172-6.388-16.851     c-1.277-1.446-1.91-3.306-1.793-5.233c0.121-1.925,0.986-3.689,2.434-4.966c2.881-2.534,7.669-2.225,10.202,0.647     c6.445,7.323,9.999,16.7,9.999,26.402C89.999,74.573,72.057,92.52,49.999,92.52z M25.42,26.551c-1.247,0-2.43,0.537-3.255,1.475     c-5.981,6.791-9.275,15.49-9.275,24.49c0,20.465,16.646,37.112,37.109,37.112S87.107,72.98,87.107,52.516     c0-9.004-3.293-17.699-9.275-24.49c-1.523-1.729-4.393-1.915-6.119-0.391c-0.87,0.764-1.386,1.823-1.462,2.981     c-0.072,1.154,0.308,2.27,1.074,3.137c4.586,5.207,7.111,11.87,7.111,18.759c0,15.681-12.759,28.443-28.439,28.443     c-15.682,0-28.438-12.763-28.438-28.443c0-6.886,2.524-13.549,7.109-18.759c1.582-1.795,1.407-4.537-0.387-6.12     C27.49,26.938,26.475,26.551,25.42,26.551z"/></g></g></g><text x="0" y="115" fill="#000000" font-size="5px" font-weight="bold" font-family="'Helvetica Neue', Helvetica, Arial-Unicode, Arial, Sans-serif">Created by Sherrinford</text><text x="0" y="120" fill="#000000" font-size="5px" font-weight="bold" font-family="'Helvetica Neue', Helvetica, Arial-Unicode, Arial, Sans-serif">from the Noun Project</text></svg>