<svg xmlns="http://www.w3.org/2000/svg" xmlns:xlink="http://www.w3.org/1999/xlink" version="1.1" x="0px" y="0px" viewBox="0 0 100 125" style="enable-background:new 0 0 100 100;" xml:space="preserve"><path d="M71.6,38.8c1.9,0.7,3.9,1.1,6,1.1C87.2,39.8,95,32,95,22.4c0-2.6-0.5-5-1.6-7.3c-0.3-0.6-0.8-1-1.4-1.1  c-0.6-0.1-1.3,0.1-1.7,0.5L78.9,26l-5-5L85.3,9.7C85.8,9.2,86,8.6,85.8,8c-0.1-0.6-0.5-1.2-1.1-1.4c-2.2-1-4.6-1.5-7.2-1.5  C68,5,60.2,12.8,60.2,22.4c0,2,0.3,3.9,1.1,5.8L28.4,61.1c-1.8-0.6-3.8-1-5.9-1C12.8,60.2,5,68,5,77.6c0,2.6,0.5,5,1.6,7.3  c0.3,0.6,0.8,1,1.4,1.1c0.6,0.1,1.3-0.1,1.7-0.5L21.1,74l5,5L14.7,90.3c-0.4,0.4-0.6,1.1-0.5,1.7c0.1,0.6,0.5,1.2,1.1,1.4  c2.2,1,4.6,1.5,7.2,1.5c9.6,0,17.4-7.8,17.4-17.4c0-2.1-0.4-4.1-1.1-6L71.6,38.8z M22.4,91.1c-1,0-1.9-0.1-2.8-0.3l10.6-10.6  c0.4-0.4,0.6-0.9,0.6-1.4s-0.2-1-0.6-1.4l-7.7-7.7c-0.8-0.8-2-0.8-2.7,0L9.2,80.5c-0.2-0.9-0.3-1.9-0.3-2.9  c0-7.5,6.1-13.5,13.5-13.5c2.1,0,3.9,0.4,5.6,1.1c0.7,0.3,1.6,0.2,2.2-0.4l34.7-34.7c0.6-0.6,0.7-1.4,0.4-2.2  C64.4,26,64,24.3,64,22.4c0-7.5,6.1-13.5,13.5-13.5c1,0,1.9,0.1,2.8,0.3L69.8,19.7c-0.8,0.8-0.8,2,0,2.7l7.7,7.7  c0.4,0.4,0.9,0.6,1.4,0.6s1-0.2,1.4-0.6l10.6-10.6c0.2,0.9,0.3,1.9,0.3,2.9c0,7.5-6.1,13.5-13.5,13.5c-2,0-3.9-0.4-5.6-1.2  c-0.7-0.3-1.6-0.2-2.2,0.4L35.1,69.8c-0.6,0.6-0.7,1.4-0.4,2.2c0.8,1.8,1.2,3.6,1.2,5.6C36,85.1,29.9,91.1,22.4,91.1z M93.6,81.7  c0.4,0.4,0.6,0.9,0.6,1.4s-0.2,1-0.6,1.4l-8.1,8.1c-0.4,0.4-0.9,0.6-1.4,0.6c-0.5,0-1-0.2-1.4-0.6l-0.1-0.1L54.6,64.4  c-0.8-0.8-0.8-2,0-2.7c0.8-0.8,2-0.8,2.7,0l26.8,26.8l5.4-5.4L62.7,56.3c-0.8-0.8-0.8-2,0-2.7c0.8-0.8,2-0.8,2.7,0L93.6,81.7z   M16.2,23.3c0.4,0.4,0.9,0.6,1.4,0.6s1-0.2,1.4-0.6l1.3-1.3l19.4,19.4c0.4,0.4,0.9,0.6,1.4,0.6s1-0.2,1.4-0.6c0.8-0.8,0.8-2,0-2.7  L23,19.2l1.1-1.1c0.4-0.4,0.6-0.9,0.6-1.4c0-0.5-0.2-1-0.6-1.4l-8-8c-0.8-0.8-2-0.8-2.7,0l-5.2,5.2c-0.8,0.8-0.8,2,0,2.7L16.2,23.3z   M14.7,11.5l5.3,5.3l-1.1,1.1c0,0,0,0,0,0c0,0,0,0,0,0l-1.3,1.3l-5.3-5.3L14.7,11.5z"/><text x="0" y="115" fill="#000000" font-size="5px" font-weight="bold" font-family="'Helvetica Neue', Helvetica, Arial-Unicode, Arial, Sans-serif">Created by AfterGrind</text><text x="0" y="120" fill="#000000" font-size="5px" font-weight="bold" font-family="'Helvetica Neue', Helvetica, Arial-Unicode, Arial, Sans-serif">from the Noun Project</text></svg>